<?xml version="1.0" encoding="UTF-8"?>
<svg xmlns="http://www.w3.org/2000/svg" xmlns:xlink="http://www.w3.org/1999/xlink" viewBox="0 0 48 48" width="48px" height="48px">
<g id="surface754888">
<path style=" stroke:none;fill-rule:nonzero;fill:gray;fill-opacity:1;" d="M 12 4 C 9.789062 4 8 5.789062 8 8 L 8 38 C 8 41.289062 10.710938 44 14 44 L 38 44 C 38.722656 44.011719 39.390625 43.632812 39.753906 43.007812 C 40.121094 42.386719 40.121094 41.613281 39.753906 40.992188 C 39.390625 40.367188 38.722656 39.988281 38 40 L 14 40 C 12.871094 40 12 39.128906 12 38 C 12 36.871094 12.871094 36 14 36 L 38 36 C 38.589844 36.007812 39.152344 35.753906 39.539062 35.308594 C 39.925781 34.859375 40.09375 34.265625 40 33.683594 L 40 6 C 40 4.894531 39.105469 4 38 4 L 32 4 L 32 24 L 26 20 L 20 24 L 20 4 Z M 12 4 "/>
</g>
</svg>
