<?xml version="1.0" standalone="no"?>
<!DOCTYPE svg PUBLIC "-//W3C//DTD SVG 20010904//EN"
 "http://www.w3.org/TR/2001/REC-SVG-20010904/DTD/svg10.dtd">
<svg version="1.0" xmlns="http://www.w3.org/2000/svg"
 width="2511.000000pt" height="759.000000pt" viewBox="0 0 2511.000000 759.000000"
 preserveAspectRatio="xMidYMid meet">

<g transform="translate(0.000000,759.000000) scale(0.100000,-0.100000)"
fill="#000000" stroke="none">
<path d="M3985 7273 c-51 -133 -178 -394 -255 -528 -354 -615 -887 -1147
-1500 -1497 l-95 -55 -3 -676 c-1 -428 1 -677 7 -677 6 0 20 4 33 10 13 5 77
29 143 54 553 203 1122 525 1598 903 l117 93 0 1235 c0 679 -1 1235 -3 1235
-2 0 -21 -44 -42 -97z"/>
<path d="M7143 6207 l-423 -111 0 -32 c0 -29 6 -34 74 -68 125 -61 189 -140
232 -282 18 -56 19 -174 24 -2274 l5 -2215 185 -6 c102 -4 325 -21 495 -40
386 -40 717 -46 900 -16 537 91 960 381 1202 826 57 104 137 301 164 401 62
237 85 580 55 839 -22 186 -89 453 -148 587 -196 443 -533 727 -978 821 -119
25 -372 24 -490 -1 -243 -52 -477 -174 -677 -353 l-73 -65 0 1051 0 1051 -62
-1 c-46 0 -177 -31 -485 -112z m1494 -2098 c184 -25 321 -95 458 -233 163
-165 256 -376 301 -680 21 -141 15 -494 -10 -629 -63 -337 -214 -597 -430
-747 -75 -51 -205 -108 -311 -137 -92 -25 -115 -27 -300 -27 -174 0 -220 3
-355 27 -85 15 -186 36 -225 45 l-70 18 0 984 0 984 86 75 c234 207 492 323
731 330 26 0 82 -4 125 -10z"/>
<path d="M13043 6207 l-423 -111 0 -32 c0 -29 6 -34 74 -68 125 -61 189 -140
232 -282 18 -56 19 -174 24 -2274 l5 -2215 185 -6 c102 -4 325 -21 495 -40
386 -40 717 -46 900 -16 537 91 960 381 1202 826 57 104 137 301 164 401 46
174 59 301 59 570 0 292 -10 374 -69 605 -80 307 -216 545 -428 746 -175 167
-381 272 -633 326 -119 25 -372 24 -490 -1 -243 -52 -477 -174 -677 -353 l-73
-65 0 1051 0 1051 -62 -1 c-46 0 -177 -31 -485 -112z m1494 -2098 c184 -25
321 -95 458 -233 163 -165 256 -376 301 -680 21 -141 15 -494 -10 -629 -63
-337 -214 -597 -430 -747 -75 -51 -205 -108 -311 -137 -92 -25 -115 -27 -300
-27 -174 0 -220 3 -355 27 -85 15 -186 36 -225 45 l-70 18 0 984 0 984 86 75
c234 207 492 323 731 330 26 0 82 -4 125 -10z"/>
<path d="M16213 6157 l-423 -112 0 -31 c0 -30 5 -34 75 -67 133 -63 205 -163
243 -333 16 -73 17 -211 17 -1939 0 -1458 -3 -1884 -13 -1970 -32 -270 -89
-368 -257 -441 -61 -27 -65 -30 -65 -61 l0 -33 650 0 650 0 0 33 c0 30 -4 34
-75 66 -128 57 -186 134 -222 293 -16 67 -17 272 -20 2391 l-3 2317 -68 -1
c-52 0 -163 -26 -489 -112z"/>
<path d="M18461 5668 c-12 -68 -29 -154 -36 -193 -13 -64 -41 -216 -80 -430
-15 -82 -54 -288 -80 -428 -19 -100 -19 -101 8 -93 12 4 83 23 157 43 74 20
155 42 180 49 25 7 104 28 175 47 117 31 181 49 340 93 28 7 79 21 115 29 97
23 99 26 59 72 -19 22 -74 86 -124 144 -49 57 -92 106 -95 109 -3 3 -46 52
-95 110 -49 58 -92 107 -95 110 -42 39 -120 142 -114 151 4 7 3 9 -3 6 -11 -7
-33 16 -138 138 -33 39 -77 88 -97 110 -21 22 -38 43 -38 48 0 4 -4 7 -9 7 -4
0 -18 -55 -30 -122z"/>
<path d="M4800 4977 c-816 -839 -1850 -1436 -2993 -1727 -136 -34 -440 -97
-572 -118 l-50 -7 -3 -608 -2 -607 28 0 c15 0 120 11 234 25 910 109 1776 331
2610 668 260 106 409 172 686 308 l242 118 0 1061 c0 583 -3 1059 -7 1059 -5
-1 -82 -78 -173 -172z"/>
<path d="M11560 4724 c-400 -33 -720 -184 -980 -461 -295 -315 -458 -755 -477
-1288 -20 -552 146 -1033 466 -1354 300 -301 696 -446 1161 -428 245 10 428
51 609 137 131 63 207 117 302 217 130 137 205 292 230 478 11 87 11 87 -14
112 l-25 25 -88 -75 c-221 -186 -476 -308 -743 -352 -138 -23 -380 -17 -493
13 -422 113 -690 440 -753 919 -8 63 -15 136 -15 164 l0 49 1059 0 1059 0 21
113 c18 98 21 148 21 392 0 238 -3 293 -20 366 -68 309 -227 571 -449 740 -83
63 -262 152 -361 179 -144 39 -381 64 -510 54z m228 -509 c219 -44 402 -198
473 -401 43 -122 62 -318 43 -436 l-7 -38 -763 0 -764 0 0 24 c0 14 7 58 15
98 80 385 325 669 644 748 95 23 254 25 359 5z"/>
<path d="M21666 4629 c-776 -64 -1331 -625 -1452 -1466 -21 -147 -21 -432 1
-598 118 -909 727 -1466 1602 -1465 699 1 1251 385 1496 1040 191 512 165
1154 -68 1635 -73 153 -161 280 -274 397 -264 276 -595 426 -1011 458 -139 11
-154 11 -294 -1z m289 -534 c242 -43 447 -179 590 -395 155 -232 224 -480 232
-835 4 -174 2 -217 -17 -329 -78 -459 -311 -765 -670 -878 -66 -20 -95 -23
-245 -23 -147 0 -181 3 -248 23 -263 76 -468 260 -597 534 -192 410 -199 987
-16 1374 193 407 551 602 971 529z"/>
<path d="M18793 4437 l-423 -112 0 -32 c0 -29 5 -34 74 -67 93 -45 174 -129
206 -212 46 -123 45 -104 45 -1229 0 -974 -2 -1078 -17 -1162 -28 -145 -52
-200 -117 -263 -38 -38 -77 -65 -123 -84 -65 -28 -68 -31 -68 -63 l0 -33 650
0 650 0 0 34 c0 31 -3 35 -55 54 -141 54 -207 136 -241 296 -27 130 -33 429
-34 1714 l0 1272 -62 -1 c-46 -1 -178 -31 -485 -112z"/>
<path d="M5720 2911 c-1355 -819 -2927 -1333 -4510 -1475 -259 -24 -446 -34
-728 -42 l-252 -7 0 -474 0 -473 2850 0 2850 0 0 1295 c0 712 -3 1295 -7 1294
-5 0 -96 -53 -203 -118z"/>
<path d="M17795 2052 c-208 -72 -329 -277 -295 -498 34 -222 202 -364 430
-364 173 0 335 98 404 244 114 242 -10 527 -269 616 -74 26 -199 27 -270 2z"/>
</g>
</svg>
