<?xml version="1.0" standalone="no"?>
<!DOCTYPE svg PUBLIC "-//W3C//DTD SVG 20010904//EN"
 "http://www.w3.org/TR/2001/REC-SVG-20010904/DTD/svg10.dtd">
<svg version="1.0" xmlns="http://www.w3.org/2000/svg"
 width="2511.000000pt" height="759.000000pt" viewBox="0 0 2511.000000 759.000000"
 preserveAspectRatio="xMidYMid meet">

<g transform="translate(0.000000,759.000000) scale(0.100000,-0.100000)"
fill="#000000" stroke="none">
<path d="M3985 7273 c-51 -133 -178 -394 -255 -528 -354 -615 -887 -1147
-1500 -1497 l-95 -55 -3 -676 c-1 -428 1 -677 7 -677 6 0 20 4 33 10 13 5 77
29 143 54 553 203 1122 525 1598 903 l117 93 0 1235 c0 679 -1 1235 -3 1235
-2 0 -21 -44 -42 -97z"/>
<path d="M18367 5159 c-65 -348 -116 -633 -114 -635 3 -4 1068 284 1074 290 5
5 -828 974 -837 975 -3 1 -59 -283 -123 -630z"/>
<path d="M4800 4977 c-816 -839 -1850 -1436 -2993 -1727 -136 -34 -440 -97
-572 -118 l-50 -7 -3 -608 -2 -607 28 0 c15 0 120 11 234 25 910 109 1776 331
2610 668 260 106 409 172 686 308 l242 118 0 1061 c0 583 -3 1059 -7 1059 -5
-1 -82 -78 -173 -172z"/>
<path d="M5720 2911 c-1355 -819 -2927 -1333 -4510 -1475 -259 -24 -446 -34
-728 -42 l-252 -7 0 -474 0 -473 2850 0 2850 0 0 1295 c0 712 -3 1295 -7 1294
-5 0 -96 -53 -203 -118z"/>
</g>
</svg>
