<?xml version="1.0" encoding="UTF-8"?>
<svg xmlns="http://www.w3.org/2000/svg" xmlns:xlink="http://www.w3.org/1999/xlink" viewBox="0 0 90 90" width="90px" height="90px">
<g id="surface770844">
<path style=" stroke:none;fill-rule:nonzero;fill-opacity:1;" d="M 37.800781 5.398438 C 20.882812 5.398438 7.199219 19.082031 7.199219 36 C 7.199219 52.917969 20.882812 66.601562 37.800781 66.601562 C 43.839844 66.601562 49.429688 64.828125 54.167969 61.820312 L 76.273438 83.925781 L 83.925781 76.273438 L 62.101562 54.507812 C 66.023438 49.359375 68.398438 42.980469 68.398438 36 C 68.398438 19.082031 54.71875 5.398438 37.800781 5.398438 Z M 37.800781 12.601562 C 50.757812 12.601562 61.199219 23.042969 61.199219 36 C 61.199219 48.957031 50.757812 59.398438 37.800781 59.398438 C 24.839844 59.398438 14.398438 48.957031 14.398438 36 C 14.398438 23.042969 24.839844 12.601562 37.800781 12.601562 Z M 37.800781 12.601562 "/>
</g>
</svg>
